<svg id="Calque_1" data-name="Calque 1" xmlns="http://www.w3.org/2000/svg" xmlns:xlink="http://www.w3.org/1999/xlink" viewBox="0 0 600.01 433.82"><defs><style>.cls-1,.cls-3{fill:none;}.cls-2{clip-path:url(#clip-path);}.cls-3{stroke:#2864ff;stroke-miterlimit:10;stroke-width:2px;}</style><clipPath id="clip-path" transform="translate(12.03 112.78)"><rect class="cls-1" width="560" height="288"/></clipPath></defs><g class="cls-2"><path class="cls-3" d="M-8,28A147.54,147.54,0,0,1,23,54c27,29.92,22.08,50,40,61,25.63,15.77,47.75-17.8,89-9,41.61,8.88,40.49,47.6,81,55,45.17,8.25,88.92-32.13,93-36,26.63-25.22,22.23-43.16,39-48,35.64-10.29,65.67,67.75,118,70,20.68.89,51.43-9.77,91-68" transform="translate(12.03 112.78)"/><path class="cls-3" d="M66.19-111.82c14.71,4.13,34.5,12.39,47.28,30.55C132-55,117.6-33.8,133.36-11.86c21,29.26,57.44,6.65,93.63,35.11,34.25,26.94,14.31,57.13,52.43,96.57,30.75,31.81,51.28,20,78.06,53.84,25.65,32.41,14.41,52.81,37.34,68.47,28.41,19.41,56.56-4.49,89.42,12.18,24.47,12.42,36.8,39.86,43.41,66.48" transform="translate(12.03 112.78)"/><path class="cls-3" d="M-12,225c27.63-.9,58.08,2.63,70,22,8.6,14,1.9,27,11,34,14,10.75,37.58-14,81-24,49.06-11.27,57.39,11.54,92-2,39.26-15.36,34.48-47,78-64,30.13-11.75,37.75,1.35,63-12,33.36-17.64,27.25-44.31,59-63,24.61-14.48,56.84-15.28,83-5,48.51,19.06,60.93,70.22,62,75" transform="translate(12.03 112.78)"/></g></svg>